<svg xmlns="http://www.w3.org/2000/svg" viewBox="0 0 300 400" width="300" height="400">
  <rect width="300" height="400" rx="12" fill="#FAF8F2"/>
  <rect x="12" y="12" width="276" height="376" rx="8" fill="#4A7C59" opacity="0.15"/>
  <rect x="24" y="24" width="252" height="352" rx="6" fill="#FFFFFF" stroke="#D9D9D9" stroke-width="2"/>
  
  <!-- Book spine & cover art -->
  <rect x="24" y="24" width="16" height="352" rx="2" fill="#4A7C59"/>
  <circle cx="150" cy="160" r="50" fill="#A8D5BA" opacity="0.5"/>
  <circle cx="150" cy="150" r="35" fill="#F4A259" opacity="0.8"/>
  
  <!-- Tree icon on cover -->
  <path d="M150 125 C140 125 132 133 132 143 C132 148 134 153 138 156 C136 159 137 165 143 165 L157 165 C163 165 164 159 162 156 C166 153 168 148 168 143 C168 133 160 125 150 125 Z" fill="#4A7C59"/>
  <rect x="148" y="165" width="4" height="15" fill="#5D4037"/>

  <!-- Decorative text lines -->
  <rect x="70" y="240" width="160" height="10" rx="5" fill="#2D2D2D"/>
  <rect x="90" y="260" width="120" height="8" rx="4" fill="#2D2D2D" opacity="0.6"/>
  <rect x="100" y="310" width="100" height="6" rx="3" fill="#4A7C59"/>
</svg>
